<svg width="70" height="70" viewBox="0 0 70 70" fill="none" xmlns="http://www.w3.org/2000/svg">
<path d="M29.1673 48.125L46.6673 35L29.1673 21.875V48.125ZM35.0006 5.83333C18.9007 5.83333 5.83398 18.9 5.83398 35C5.83398 51.1 18.9007 64.1667 35.0006 64.1667C51.1006 64.1667 64.1673 51.1 64.1673 35C64.1673 18.9 51.1006 5.83333 35.0006 5.83333ZM35.0006 58.3333C22.1382 58.3333 11.6673 47.8625 11.6673 35C11.6673 22.1375 22.1382 11.6667 35.0006 11.6667C47.8631 11.6667 58.334 22.1375 58.334 35C58.334 47.8625 47.8631 58.3333 35.0006 58.3333Z" fill="black"/>
</svg>
