<svg width="68" height="68" viewBox="0 0 68 68" fill="none" xmlns="http://www.w3.org/2000/svg">
<g clip-path="url(#clip0_45_44793)">
<path d="M31.167 51.0001H36.8337V45.3334H31.167V51.0001ZM34.0003 5.66675C18.3603 5.66675 5.66699 18.3601 5.66699 34.0001C5.66699 49.6401 18.3603 62.3334 34.0003 62.3334C49.6403 62.3334 62.3337 49.6401 62.3337 34.0001C62.3337 18.3601 49.6403 5.66675 34.0003 5.66675ZM34.0003 56.6668C21.5053 56.6668 11.3337 46.4951 11.3337 34.0001C11.3337 21.5051 21.5053 11.3334 34.0003 11.3334C46.4953 11.3334 56.667 21.5051 56.667 34.0001C56.667 46.4951 46.4953 56.6668 34.0003 56.6668ZM34.0003 17.0001C27.7387 17.0001 22.667 22.0717 22.667 28.3334H28.3337C28.3337 25.2167 30.8837 22.6667 34.0003 22.6667C37.117 22.6667 39.667 25.2167 39.667 28.3334C39.667 34.0001 31.167 33.2917 31.167 42.5001H36.8337C36.8337 36.1251 45.3337 35.4167 45.3337 28.3334C45.3337 22.0717 40.262 17.0001 34.0003 17.0001Z" fill="#FF9500"/>
</g>
<defs>
<clipPath id="clip0_45_44793">
<rect width="68" height="68" fill="white"/>
</clipPath>
</defs>
</svg>
